<svg width="24" height="24" viewBox="0 0 24 24" fill="none" xmlns="http://www.w3.org/2000/svg">
<path d="M14 18.5H18.5M18.5 18.5H23M18.5 18.5V14M18.5 18.5V23M4 10H7C7.79565 10 8.55871 9.68393 9.12132 9.12132C9.68393 8.55871 10 7.79565 10 7V4C10 3.20435 9.68393 2.44129 9.12132 1.87868C8.55871 1.31607 7.79565 1 7 1H4C3.20435 1 2.44129 1.31607 1.87868 1.87868C1.31607 2.44129 1 3.20435 1 4V7C1 7.79565 1.31607 8.55871 1.87868 9.12132C2.44129 9.68393 3.20435 10 4 10V10ZM4 23H7C7.79565 23 8.55871 22.6839 9.12132 22.1213C9.68393 21.5587 10 20.7957 10 20V17C10 16.2044 9.68393 15.4413 9.12132 14.8787C8.55871 14.3161 7.79565 14 7 14H4C3.20435 14 2.44129 14.3161 1.87868 14.8787C1.31607 15.4413 1 16.2044 1 17V20C1 20.7957 1.31607 21.5587 1.87868 22.1213C2.44129 22.6839 3.20435 23 4 23ZM17 10H20C20.7957 10 21.5587 9.68393 22.1213 9.12132C22.6839 8.55871 23 7.79565 23 7V4C23 3.20435 22.6839 2.44129 22.1213 1.87868C21.5587 1.31607 20.7957 1 20 1H17C16.2044 1 15.4413 1.31607 14.8787 1.87868C14.3161 2.44129 14 3.20435 14 4V7C14 7.79565 14.3161 8.55871 14.8787 9.12132C15.4413 9.68393 16.2044 10 17 10V10Z" stroke="#18161F" stroke-width="2" stroke-linecap="round" stroke-linejoin="round"/>
</svg>
